<?xml version="1.0" encoding="utf-8"?><svg xmlns="http://www.w3.org/2000/svg" xmlns:xlink="http://www.w3.org/1999/xlink" width="1920" height="903" preserveAspectRatio="xMidYMid" viewBox="0 0 1920 903" style="z-index:1;margin-right:-2px;display:block;background-repeat-y:initial;background-repeat-x:initial;background-color:rgb(255, 255, 255);animation-play-state:paused" ><g transform="" style="animation-play-state:paused" ><linearGradient id="lg-0.686575359573687" x1="0" x2="1" y1="0" y2="0" style="animation-play-state:paused" ><stop stop-color="#ff00ff" offset="0" style="animation-play-state:paused" ></stop>

  
<stop stop-color="#00ffff" offset="1" style="animation-play-state:paused" ></stop></linearGradient>
<path fill="url(#lg-0.686575359573687)" opacity="0.4" d="M 0 0 L 0 767.155 Q 320 706.448 640 673.592 T 1280 471.308 T 1920 359.206 L 1920 0 Z" style="opacity:0.4;animation-play-state:paused" ></path>
<path fill="url(#lg-0.686575359573687)" opacity="0.4" d="M 0 0 L 0 752.228 Q 320 598.145 640 581.039 T 1280 461.668 T 1920 383.221 L 1920 0 Z" style="opacity:0.4;animation-play-state:paused" ></path>
<path fill="url(#lg-0.686575359573687)" opacity="0.4" d="M 0 0 L 0 804.835 Q 320 652.377 640 632.122 T 1280 499.166 T 1920 357.209 L 1920 0 Z" style="opacity:0.4;animation-play-state:paused" ></path>
<path fill="url(#lg-0.686575359573687)" opacity="0.4" d="M 0 0 L 0 750.417 Q 320 688.261 640 667.811 T 1280 497.473 T 1920 344.284 L 1920 0 Z" style="opacity:0.4;animation-play-state:paused" ></path>
<path fill="url(#lg-0.686575359573687)" opacity="0.4" d="M 0 0 L 0 775.749 Q 320 680.394 640 649.726 T 1280 523.796 T 1920 352.142 L 1920 0 Z" style="opacity:0.4;animation-play-state:paused" ></path></g></svg>