<?xml version="1.0" encoding="utf-8"?><svg xmlns="http://www.w3.org/2000/svg" xmlns:xlink="http://www.w3.org/1999/xlink" width="1920" height="903" preserveAspectRatio="xMidYMid" viewBox="0 0 1920 903" style="z-index:1;margin-right:-2px;display:block;background-repeat-y:initial;background-repeat-x:initial;background-color:rgb(255, 255, 255);animation-play-state:paused" ><g transform="" style="animation-play-state:paused" ><linearGradient id="lg-0.2150819083136868" x1="0" x2="1" y1="0" y2="0" style="animation-play-state:paused" ><stop stop-color="#ff00ff" offset="0" style="animation-play-state:paused" ></stop>

  
<stop stop-color="#00ffff" offset="1" style="animation-play-state:paused" ></stop></linearGradient>
<path fill="url(#lg-0.2150819083136868)" opacity="0.4" d="M 0 0 L 0 984.492 Q 320 808.52 640 774.902 T 1280 577.536 T 1920 373.947 L 1920 0 Z" style="opacity:0.4;animation-play-state:paused" ></path>
<path fill="url(#lg-0.2150819083136868)" opacity="0.4" d="M 0 0 L 0 969.842 Q 320 826.617 640 780.685 T 1280 588.88 T 1920 407.411 L 1920 0 Z" style="opacity:0.4;animation-play-state:paused" ></path>
<path fill="url(#lg-0.2150819083136868)" opacity="0.4" d="M 0 0 L 0 983.002 Q 320 825.43 640 798.806 T 1280 642.466 T 1920 471.991 L 1920 0 Z" style="opacity:0.4;animation-play-state:paused" ></path>
<path fill="url(#lg-0.2150819083136868)" opacity="0.4" d="M 0 0 L 0 955.135 Q 320 835.13 640 812.205 T 1280 625.276 T 1920 432.93 L 1920 0 Z" style="opacity:0.4;animation-play-state:paused" ></path>
<path fill="url(#lg-0.2150819083136868)" opacity="0.4" d="M 0 0 L 0 978.616 Q 320 830.993 640 793.859 T 1280 582.513 T 1920 419.351 L 1920 0 Z" style="opacity:0.4;animation-play-state:paused" ></path></g></svg>